<?xml version="1.0" encoding="UTF-8" standalone="no"?>
<!DOCTYPE svg PUBLIC "-//W3C//DTD SVG 1.1//EN" "http://www.w3.org/Graphics/SVG/1.1/DTD/svg11.dtd">
<svg xmlns="http://www.w3.org/2000/svg" version="1.1" viewBox="0.00 0.00 1024.00 1024.00">
<path fill="#ffffff" d="
  M 161.44 240.92
  L 161.36 240.51
  A 0.15 0.15 0.0 0 1 161.62 240.37
  L 161.85 240.60
  Q 162.20 240.94 162.67 240.88
  C 175.79 239.14 183.42 239.68 197.12 239.68
  Q 520.44 239.70 843.75 239.66
  Q 851.02 239.66 858.28 239.96
  Q 860.43 240.05 862.56 241.12
  Q 868.14 243.90 874.11 245.58
  Q 874.60 245.71 874.94 246.09
  Q 878.53 250.00 882.90 253.07
  Q 883.38 253.41 883.96 253.52
  Q 885.78 253.86 885.75 255.73
  Q 885.74 256.20 885.99 256.60
  L 891.37 264.98
  Q 891.61 265.35 891.97 265.62
  Q 893.79 267.00 893.37 269.43
  Q 893.29 269.90 893.44 270.35
  Q 894.79 274.48 895.76 278.72
  C 897.50 286.36 896.00 293.53 895.05 301.98
  Q 894.67 305.39 893.98 306.75
  Q 883.95 326.63 863.53 335.50
  A 1.17 1.15 -50.0 0 1 862.79 335.57
  C 861.72 335.33 860.88 335.07 859.75 335.23
  Q 852.33 336.30 840.25 336.30
  Q 510.00 336.29 179.75 336.28
  Q 173.12 336.28 166.50 335.90
  Q 163.63 335.74 162.23 335.09
  Q 155.92 332.18 149.28 330.14
  Q 148.38 329.86 148.64 329.08
  Q 148.79 328.63 148.39 328.37
  Q 141.79 324.07 139.50 321.51
  C 137.10 318.82 134.69 313.81 131.47 309.47
  C 130.23 307.79 130.61 305.94 130.00 304.23
  C 126.74 295.09 127.23 287.03 128.53 277.01
  Q 128.54 276.90 128.63 273.99
  Q 128.70 271.56 130.21 268.66
  Q 139.09 251.59 156.79 242.15
  Q 159.09 240.93 161.11 241.26
  Q 161.52 241.33 161.44 240.92
  Z"
/>
<path fill="#ffffff" d="
  M 131.41 490.00
  Q 131.74 488.59 133.46 485.87
  Q 140.47 474.77 151.51 468.26
  Q 153.31 467.19 155.54 467.34
  A 0.20 0.20 0.0 0 0 155.74 467.06
  L 155.59 466.72
  Q 155.48 466.49 155.72 466.60
  Q 156.61 467.04 157.27 466.82
  Q 167.25 463.45 175.75 463.54
  Q 194.50 463.76 213.25 463.75
  Q 523.19 463.70 833.12 463.68
  Q 850.93 463.68 858.17 463.33
  Q 858.70 463.30 858.47 463.78
  L 858.31 464.10
  A 0.28 0.27 -70.1 0 0 858.48 464.48
  Q 863.66 465.86 868.78 467.42
  Q 871.41 468.22 873.75 470.02
  Q 877.20 472.66 880.78 475.13
  Q 881.19 475.41 881.68 475.48
  C 884.41 475.85 884.24 478.22 885.17 479.64
  Q 889.16 485.67 891.10 487.64
  Q 892.30 488.86 892.35 490.22
  Q 892.38 490.77 892.53 491.31
  L 895.46 501.45
  Q 895.59 501.90 896.02 501.69
  L 896.32 501.54
  Q 896.75 501.33 896.72 501.81
  Q 896.01 511.69 896.16 519.50
  Q 896.18 520.40 896.60 521.66
  A 1.06 1.04 55.9 0 1 896.42 522.65
  Q 895.71 523.53 895.83 524.75
  A 1.66 1.65 -35.0 0 1 895.66 525.70
  Q 893.63 529.76 891.64 533.83
  C 887.22 542.93 880.41 550.64 871.41 554.91
  Q 864.79 558.05 862.00 559.57
  Q 861.56 559.81 861.07 559.79
  Q 859.67 559.76 858.44 560.42
  Q 858.02 560.64 857.57 560.49
  C 856.56 560.13 855.84 559.96 854.73 560.00
  Q 846.79 560.31 842.75 560.31
  Q 509.06 560.28 175.37 560.31
  C 171.37 560.31 167.02 559.53 162.62 559.39
  C 160.43 559.32 158.49 557.60 157.07 556.96
  Q 152.12 554.73 147.16 552.49
  Q 146.73 552.29 146.51 551.86
  Q 146.10 551.06 145.88 550.88
  Q 142.31 547.88 139.70 545.38
  C 135.94 541.79 134.07 537.56 131.62 532.94
  Q 129.91 529.72 129.21 526.73
  Q 125.12 509.37 131.01 492.33
  Q 131.11 492.06 130.89 491.87
  Q 130.68 491.68 130.70 491.65
  Q 131.20 490.89 131.41 490.00
  Z"
/>
<path fill="#ffffff" d="
  M 145.24 697.92
  C 146.74 696.93 147.73 695.48 149.27 694.67
  Q 156.48 690.87 164.32 688.85
  Q 168.87 687.67 175.30 687.67
  Q 502.27 687.71 829.25 687.76
  Q 839.72 687.76 850.19 687.60
  C 855.90 687.51 860.53 688.80 865.72 690.53
  Q 866.21 690.69 866.70 690.59
  Q 869.24 690.07 870.64 692.28
  Q 870.91 692.69 871.34 692.93
  Q 875.76 695.42 879.93 698.32
  Q 881.94 699.72 883.82 702.28
  Q 886.59 706.05 890.03 709.19
  Q 890.41 709.53 890.54 710.01
  Q 892.71 717.93 894.49 721.24
  C 895.68 723.48 896.19 724.67 896.17 727.35
  Q 896.13 734.68 896.51 742.00
  Q 896.64 744.50 895.78 746.86
  C 894.37 750.69 893.16 754.96 891.51 758.31
  C 884.13 773.27 873.58 778.62 858.32 784.03
  C 855.13 785.17 853.16 784.16 850.05 784.19
  Q 837.79 784.31 812.50 784.30
  Q 668.29 784.25 176.86 784.32
  Q 171.98 784.32 167.43 783.64
  Q 164.06 783.13 160.69 782.58
  Q 158.15 782.17 155.82 780.77
  Q 152.03 778.49 148.12 776.41
  Q 144.91 774.71 142.77 772.49
  Q 139.93 769.55 137.34 766.41
  Q 136.99 765.98 136.08 765.49
  Q 135.63 765.24 135.42 764.77
  Q 132.91 759.02 130.21 753.36
  Q 128.79 750.38 128.45 747.36
  Q 127.82 741.69 127.60 735.99
  Q 127.37 729.98 128.49 725.12
  C 130.04 718.43 133.07 710.81 137.67 705.49
  Q 137.83 705.30 137.70 705.10
  Q 137.48 704.79 137.25 705.11
  Q 136.37 706.39 135.11 707.36
  Q 133.65 708.49 134.83 707.08
  L 136.65 704.89
  Q 136.98 704.50 137.24 704.07
  Q 137.40 703.80 137.59 703.56
  Q 141.53 698.47 147.33 694.78
  A 0.17 0.16 5.4 0 1 147.54 695.03
  L 145.00 697.62
  A 0.19 0.19 0.0 0 0 145.24 697.92
  Z"
/>
</svg>
