<?xml version="1.0" encoding="UTF-8" standalone="no"?>
<!DOCTYPE svg PUBLIC "-//W3C//DTD SVG 1.1//EN" "http://www.w3.org/Graphics/SVG/1.1/DTD/svg11.dtd">
<svg xmlns="http://www.w3.org/2000/svg" version="1.1" viewBox="0.00 0.00 1448.00 1448.00">
<path fill="#ffffff" d="
  M 320.52 911.22
  Q 318.55 911.37 320.11 912.58
  Q 337.71 926.35 358.41 932.54
  Q 388.61 941.58 420.17 941.08
  Q 420.66 941.07 420.75 941.55
  Q 439.72 1041.73 463.07 1140.97
  C 470.07 1170.75 477.18 1201.23 488.27 1229.78
  Q 488.45 1230.23 487.97 1230.23
  L 390.22 1230.23
  Q 389.59 1230.23 389.64 1229.61
  C 390.63 1216.74 391.50 1203.86 391.01 1191.09
  Q 389.81 1160.33 385.07 1124.64
  Q 384.85 1122.99 384.67 1122.07
  A 0.69 0.67 -5.7 0 0 384.00 1121.53
  L 334.99 1121.53
  A 0.75 0.75 0.0 0 0 334.25 1122.40
  C 335.19 1128.25 334.94 1135.06 335.36 1139.87
  C 337.55 1164.95 341.29 1188.98 350.80 1212.46
  Q 354.43 1221.42 359.58 1229.62
  Q 359.96 1230.23 359.25 1230.23
  L 294.30 1230.23
  Q 293.95 1230.23 294.03 1229.88
  Q 294.38 1228.36 294.93 1224.38
  C 301.63 1176.08 311.73 1132.35 323.81 1082.02
  Q 334.06 1039.32 349.55 998.24
  C 350.10 996.78 350.04 995.47 349.31 993.99
  C 335.32 965.65 316.96 940.01 302.28 912.04
  Q 302.03 911.57 301.51 911.59
  Q 245.33 913.06 188.99 914.67
  Q 178.21 914.98 169.00 914.90
  Q 132.36 914.57 106.12 912.73
  Q 103.86 912.57 95.59 910.83
  Q 95.28 910.77 95.04 910.60
  Q 94.70 910.36 94.57 910.21
  A 0.65 0.65 0.0 0 1 94.86 909.16
  Q 103.81 906.41 113.26 905.08
  Q 146.17 900.45 196.50 896.03
  Q 248.34 891.48 273.50 890.02
  Q 276.68 889.83 278.68 889.60
  C 283.31 889.08 287.64 889.46 292.18 888.42
  Q 292.62 888.32 292.54 887.88
  L 289.73 872.60
  A 0.42 0.42 0.0 0 1 290.52 872.34
  L 297.56 886.70
  Q 298.21 888.03 299.70 887.99
  L 311.56 887.62
  A 1.84 1.84 0.0 0 0 313.34 885.93
  Q 316.44 848.72 317.76 811.00
  C 318.13 800.49 318.18 786.35 318.66 774.00
  C 320.05 737.86 318.11 702.90 309.24 669.25
  Q 303.84 648.77 291.65 628.55
  C 284.78 617.16 276.92 605.38 272.15 596.33
  C 264.72 582.25 259.27 565.79 259.13 550.81
  Q 259.08 545.92 260.69 550.54
  C 264.08 560.25 269.11 569.14 276.38 576.73
  Q 294.08 595.22 318.01 604.14
  C 339.03 611.97 361.53 615.71 384.26 615.92
  Q 400.46 616.07 413.01 615.73
  C 438.58 615.05 464.15 614.61 489.72 613.77
  Q 490.19 613.75 490.22 614.23
  C 490.50 620.41 489.83 627.99 489.71 632.57
  Q 489.34 647.02 488.95 661.47
  C 488.72 669.81 487.87 685.21 488.05 697.15
  Q 488.06 697.65 487.85 698.10
  Q 487.48 698.91 487.47 699.75
  Q 487.32 718.85 486.39 737.81
  A 0.19 0.19 0.0 0 1 486.01 737.86
  C 477.72 711.09 462.24 688.69 442.51 667.99
  C 428.39 653.18 413.07 638.12 396.35 626.26
  Q 395.02 625.32 394.56 626.89
  Q 393.38 630.94 392.61 635.89
  Q 387.05 671.78 386.29 703.50
  C 385.97 716.55 385.38 729.38 385.49 742.56
  A 0.74 0.74 0.0 0 0 386.23 743.29
  L 460.78 743.30
  A 0.29 0.29 0.0 0 1 461.05 743.69
  Q 453.77 763.69 455.09 785.03
  Q 455.14 785.80 454.49 785.38
  Q 445.27 779.49 436.25 773.56
  Q 412.85 758.21 386.97 746.47
  A 1.08 1.07 12.0 0 0 385.45 747.45
  Q 386.09 814.63 396.35 880.99
  Q 396.54 882.21 397.77 882.14
  Q 415.13 881.24 433.00 880.16
  Q 434.45 880.07 436.08 878.33
  C 446.66 867.05 454.88 855.54 463.81 841.91
  Q 478.27 819.84 489.83 796.13
  A 0.27 0.26 59.3 0 1 490.33 796.26
  L 487.92 876.74
  Q 487.90 877.33 488.50 877.30
  L 562.85 873.71
  Q 563.42 873.69 563.41 873.11
  Q 563.32 863.73 563.40 854.37
  Q 563.41 852.86 563.94 851.80
  A 1.83 1.79 59.0 0 0 564.13 850.99
  Q 564.11 837.88 564.14 824.78
  C 564.15 823.46 564.89 822.55 564.88 821.22
  Q 564.83 808.55 564.92 795.88
  C 564.92 795.45 565.11 795.16 565.32 794.82
  Q 565.52 794.49 565.52 794.11
  Q 565.91 766.05 566.88 738.01
  Q 566.93 736.64 566.96 735.25
  Q 567.23 723.77 567.21 712.30
  C 567.21 711.33 567.89 710.83 567.90 709.89
  Q 567.97 696.70 567.96 683.52
  Q 567.96 683.02 568.26 682.61
  Q 568.70 682.03 568.70 681.50
  Q 568.71 668.43 568.72 655.35
  C 568.72 653.59 569.32 651.99 569.34 650.27
  Q 569.52 638.19 569.46 626.10
  Q 569.46 625.62 569.77 625.25
  Q 570.20 624.71 570.20 624.40
  Q 570.19 610.36 570.26 596.31
  Q 570.26 595.81 570.46 595.36
  Q 570.71 594.79 570.72 594.24
  Q 570.93 581.56 571.01 568.87
  C 571.01 567.49 571.70 566.24 571.71 564.92
  Q 571.74 555.95 571.72 546.78
  A 0.66 0.66 0.0 0 0 571.06 546.12
  Q 515.76 545.33 460.50 544.61
  C 433.10 544.25 405.65 543.07 378.25 542.23
  Q 308.36 540.08 238.50 537.12
  C 193.23 535.20 147.87 532.98 102.74 528.79
  Q 102.11 528.74 101.89 528.40
  Q 101.69 528.11 101.75 527.76
  Q 101.83 527.27 102.32 527.27
  L 457.94 527.22
  Q 458.93 527.22 458.56 526.30
  Q 458.31 525.68 457.22 525.00
  Q 440.18 514.39 423.17 503.70
  Q 422.75 503.43 422.77 502.93
  Q 424.26 467.58 417.13 433.03
  Q 415.95 427.28 414.16 421.55
  A 0.66 0.65 -53.0 0 0 412.88 421.73
  C 412.82 424.43 412.10 427.12 412.11 429.78
  Q 412.20 450.38 407.53 470.32
  C 403.25 488.56 396.02 507.19 378.59 516.42
  Q 372.97 519.40 364.46 520.50
  Q 331.57 524.72 304.88 506.45
  C 282.78 491.32 269.08 462.96 261.56 438.00
  Q 254.48 414.49 252.17 390.01
  Q 249.03 356.74 253.44 323.64
  C 260.22 272.87 288.52 218.79 342.07 204.90
  Q 350.60 202.68 361.79 201.80
  Q 409.41 198.06 453.80 216.39
  Q 454.30 216.60 454.32 217.14
  L 457.33 344.71
  Q 457.35 345.86 456.54 345.04
  L 331.10 217.62
  Q 329.98 216.47 329.55 218.02
  C 327.78 224.41 326.23 230.99 325.24 237.76
  Q 321.75 261.62 322.33 280.50
  C 323.67 324.36 330.10 370.46 347.13 411.20
  C 352.05 422.97 375.41 468.36 393.93 457.02
  C 405.28 450.07 409.46 426.98 411.05 415.22
  Q 411.38 412.72 410.56 410.34
  C 405.24 395.04 396.49 380.69 383.59 370.59
  A 0.27 0.27 0.0 0 1 383.75 370.11
  L 491.75 370.14
  Q 492.77 370.14 492.64 371.15
  C 486.11 422.18 479.27 473.90 484.58 525.18
  A 2.16 2.16 0.0 0 0 486.73 527.12
  L 572.24 527.12
  Q 572.71 527.12 572.67 526.66
  Q 572.10 520.15 572.58 513.71
  Q 573.23 505.18 573.22 502.26
  Q 573.22 493.56 573.24 484.86
  C 573.25 483.35 573.99 481.81 573.99 480.50
  Q 573.96 468.50 574.00 456.50
  C 574.00 455.21 574.71 453.84 574.71 452.47
  Q 574.74 445.14 574.74 437.81
  C 574.73 429.23 575.58 419.02 575.54 409.56
  Q 575.51 402.83 575.92 395.95
  Q 576.61 384.24 576.11 372.50
  C 576.03 370.58 577.01 368.11 577.00 365.81
  Q 576.94 354.46 577.03 343.11
  C 577.05 341.49 577.83 339.93 577.76 337.75
  C 577.51 330.35 577.43 319.59 578.31 309.69
  C 578.74 304.93 578.32 300.34 578.90 295.51
  C 579.44 290.97 579.12 286.72 579.73 282.06
  C 580.26 277.96 579.83 274.23 580.51 269.95
  C 581.03 266.67 580.60 262.95 580.87 260.01
  Q 581.93 248.40 582.38 236.76
  C 582.43 235.70 582.88 234.37 582.94 232.75
  Q 583.99 205.16 588.88 171.26
  C 589.15 169.40 589.85 166.77 590.43 165.27
  Q 591.69 161.99 592.30 165.45
  Q 593.45 172.09 594.10 178.39
  C 594.25 179.89 594.08 183.32 594.64 185.74
  C 595.43 189.18 594.84 192.93 595.23 196.47
  Q 595.69 200.74 595.67 204.07
  C 595.64 209.67 596.47 215.31 596.44 220.65
  Q 596.41 227.03 596.82 233.40
  C 597.45 243.31 597.03 252.82 597.52 262.55
  Q 598.01 272.25 597.97 278.97
  C 597.85 296.51 598.75 314.37 598.76 331.50
  Q 598.79 428.86 598.75 526.22
  Q 598.75 526.69 599.22 526.69
  Q 600.43 526.67 603.50 526.95
  C 611.47 527.68 622.36 526.76 629.16 526.69
  Q 642.14 526.57 655.12 526.48
  Q 655.64 526.48 655.89 526.02
  Q 656.54 524.78 656.73 523.39
  Q 661.77 485.04 669.94 447.23
  C 680.96 396.25 692.45 346.70 710.95 298.37
  Q 711.14 297.88 710.90 297.40
  Q 699.09 274.18 681.16 246.04
  Q 673.65 234.26 663.24 214.29
  Q 654.43 197.41 651.80 177.20
  A 0.50 0.50 0.0 0 1 652.77 176.95
  C 673.13 228.75 728.27 244.85 779.68 244.26
  A 0.41 0.40 83.2 0 1 780.09 244.59
  C 789.55 295.07 800.31 345.12 811.10 395.26
  Q 822.93 450.28 838.30 504.41
  C 840.37 511.72 842.99 518.64 845.72 525.50
  A 1.58 1.57 78.9 0 0 847.18 526.49
  Q 858.63 526.52 870.35 526.50
  Q 870.65 526.50 873.09 526.05
  C 874.61 525.78 875.58 526.49 876.97 526.50
  Q 885.26 526.51 893.74 526.48
  A 0.61 0.60 -6.5 0 0 894.33 525.75
  Q 893.75 523.02 893.75 520.00
  Q 893.74 506.46 893.74 492.93
  C 893.74 489.90 893.01 486.97 893.00 483.96
  Q 892.96 466.74 893.00 449.52
  C 893.00 447.69 892.23 446.52 892.23 444.82
  Q 892.24 419.16 892.23 393.50
  C 892.23 392.39 891.49 390.92 891.49 389.48
  Q 891.44 341.26 891.50 293.04
  C 891.50 291.57 892.24 290.86 892.24 289.47
  Q 892.22 269.61 892.25 249.75
  C 892.25 248.92 892.97 247.83 892.97 246.71
  Q 893.00 236.19 892.98 225.68
  Q 892.98 222.62 893.59 214.87
  C 893.97 210.06 893.62 204.81 893.91 200.39
  Q 894.74 188.10 895.27 175.79
  Q 895.33 174.38 895.81 170.25
  C 896.19 166.92 895.77 163.69 896.31 160.35
  Q 896.66 158.18 896.75 156.00
  C 897.13 146.99 898.18 135.38 898.69 129.05
  Q 900.11 111.31 902.98 93.73
  A 0.13 0.12 9.1 0 1 903.13 93.63
  Q 905.60 94.04 903.28 93.76
  Q 903.21 93.75 903.22 93.82
  Q 904.30 103.68 904.28 113.57
  Q 904.27 118.61 904.71 124.41
  C 905.26 131.86 904.89 139.18 905.46 146.73
  C 906.00 153.75 905.61 160.75 906.15 167.74
  C 906.74 175.32 906.39 182.86 906.93 190.41
  C 907.46 197.91 907.09 205.28 907.66 212.83
  Q 908.07 218.16 908.06 223.51
  C 908.04 232.38 908.94 241.06 908.71 250.25
  C 908.60 254.59 909.56 259.23 909.47 263.60
  Q 909.30 272.39 910.09 281.15
  C 910.63 287.04 910.11 294.13 910.65 300.93
  C 911.24 308.55 910.82 316.00 911.43 323.68
  C 912.02 331.09 911.66 338.50 912.20 345.88
  C 912.71 352.84 912.39 359.87 912.87 366.70
  C 913.40 374.27 912.78 381.91 913.64 389.40
  C 914.48 396.79 913.70 404.22 914.31 411.64
  C 914.88 418.64 914.52 425.27 914.97 432.12
  Q 915.41 439.04 915.45 445.40
  Q 915.49 450.45 915.86 455.48
  C 916.37 462.45 916.01 469.41 916.51 476.39
  Q 916.93 482.41 916.92 488.62
  C 916.91 494.97 917.64 501.56 917.68 507.48
  Q 917.75 516.73 918.23 525.98
  Q 918.26 526.48 918.76 526.48
  Q 937.53 526.51 956.26 526.50
  C 957.81 526.49 958.16 524.61 958.39 523.22
  Q 971.37 445.96 977.90 372.13
  Q 979.96 348.79 979.20 323.75
  C 978.72 307.89 978.01 294.41 974.34 280.73
  C 973.10 276.12 970.65 272.02 967.26 267.86
  Q 959.10 257.85 954.54 248.46
  C 946.06 231.02 939.80 212.67 940.07 194.20
  A 0.37 0.37 0.0 0 1 940.78 194.07
  C 948.05 212.67 964.13 230.29 981.03 240.81
  C 996.86 250.67 1017.07 256.14 1035.49 258.49
  Q 1039.26 258.97 1046.34 257.87
  Q 1046.81 257.80 1046.94 258.26
  L 1085.87 395.55
  A 0.60 0.60 0.0 0 0 1087.04 395.51
  L 1116.28 259.76
  Q 1116.37 259.34 1116.79 259.34
  L 1194.20 259.33
  Q 1194.66 259.33 1194.58 259.78
  Q 1190.06 285.01 1189.13 313.49
  Q 1187.94 349.80 1189.71 388.25
  C 1189.77 389.60 1190.26 390.74 1190.22 391.92
  C 1190.01 397.97 1190.77 405.38 1191.00 409.83
  Q 1193.54 459.62 1198.27 509.26
  Q 1199.03 517.18 1199.51 524.77
  A 1.69 1.69 0.0 0 0 1201.20 526.35
  Q 1205.52 526.35 1209.58 526.38
  C 1213.87 526.42 1219.33 525.77 1224.26 526.07
  C 1226.78 526.22 1229.13 525.78 1231.25 525.78
  Q 1282.25 525.75 1333.24 525.75
  C 1348.53 525.75 1362.93 526.58 1377.75 527.69
  Q 1378.87 527.77 1378.92 528.65
  A 0.64 0.64 0.0 0 1 1378.38 529.33
  C 1361.82 531.96 1344.97 532.84 1328.24 533.77
  Q 1271.15 536.92 1214.00 538.86
  C 1166.77 540.46 1119.49 541.93 1072.25 542.98
  Q 995.96 544.67 919.66 545.59
  Q 919.13 545.60 919.15 546.12
  L 929.87 861.84
  Q 929.89 862.35 930.40 862.35
  L 1051.83 861.22
  Q 1052.63 861.22 1052.76 860.43
  Q 1059.67 816.85 1061.59 773.00
  C 1061.70 770.40 1061.55 764.06 1061.94 759.65
  Q 1062.22 756.51 1062.16 754.31
  Q 1060.76 700.70 1052.26 648.07
  A 1.37 1.37 0.0 0 0 1050.46 646.99
  Q 1018.85 657.89 1001.68 686.11
  Q 1000.46 688.12 999.90 690.04
  A 0.70 0.70 0.0 0 1 998.56 690.04
  Q 981.86 632.80 965.06 575.23
  Q 964.91 574.71 965.00 574.33
  A 0.35 0.34 -51.9 0 1 965.64 574.25
  Q 975.35 593.11 992.30 605.45
  C 1003.56 613.65 1017.81 618.60 1032.14 622.47
  Q 1047.10 626.52 1060.00 627.23
  Q 1093.97 629.10 1118.75 626.99
  Q 1141.21 625.07 1166.17 614.99
  Q 1195.35 603.21 1210.00 574.85
  A 0.54 0.54 0.0 0 1 1210.99 575.25
  L 1177.58 690.86
  A 0.33 0.32 39.1 0 1 1176.98 690.92
  Q 1159.89 658.12 1124.48 646.62
  Q 1124.01 646.47 1123.93 646.96
  Q 1115.74 697.25 1114.08 744.75
  Q 1113.51 761.28 1114.92 781.75
  Q 1117.42 817.94 1123.37 860.38
  C 1123.79 863.34 1125.45 862.91 1128.14 862.85
  C 1139.10 862.60 1150.29 863.41 1160.94 863.46
  C 1169.39 863.50 1177.99 864.05 1186.20 864.18
  Q 1199.73 864.40 1221.00 865.54
  Q 1276.46 868.49 1331.75 873.69
  Q 1354.18 875.80 1376.75 880.13
  A 0.64 0.64 0.0 0 1 1376.65 881.39
  L 931.47 893.86
  Q 930.95 893.88 930.97 894.40
  Q 936.71 1064.09 942.51 1233.76
  Q 942.84 1243.43 942.91 1253.75
  C 943.07 1275.32 943.80 1296.95 943.38 1318.51
  Q 943.02 1337.50 942.64 1356.49
  Q 942.40 1368.44 940.92 1379.89
  A 1.00 1.00 0.0 0 1 938.95 1379.98
  Q 936.93 1370.94 935.90 1361.49
  Q 930.80 1314.35 926.53 1254.00
  Q 922.56 1197.81 920.70 1163.77
  C 920.65 1162.70 920.06 1161.08 920.11 1160.25
  Q 920.43 1154.71 919.76 1149.23
  C 919.23 1144.90 919.60 1140.59 919.06 1136.22
  C 918.44 1131.25 918.94 1126.94 918.29 1122.27
  Q 917.76 1118.48 917.97 1112.74
  C 918.03 1110.92 917.04 1108.62 917.11 1106.24
  Q 917.25 1102.07 916.72 1096.50
  Q 916.13 1090.22 915.58 1073.74
  Q 915.53 1072.51 914.97 1065.27
  C 914.68 1061.44 914.93 1057.77 914.47 1053.93
  Q 913.92 1049.26 913.98 1044.56
  Q 914.03 1041.50 913.58 1037.98
  C 912.98 1033.22 913.36 1028.38 912.83 1023.64
  C 912.35 1019.24 912.59 1014.85 912.13 1010.48
  Q 911.51 1004.56 911.81 998.60
  C 911.91 996.73 910.94 995.10 911.01 993.25
  Q 911.25 986.93 910.76 981.31
  Q 910.32 976.29 910.32 972.67
  C 910.32 965.65 909.44 958.90 909.47 952.23
  Q 909.49 949.04 908.95 944.31
  C 908.51 940.41 908.87 936.29 908.51 932.57
  Q 907.99 927.29 907.89 921.99
  Q 907.82 918.23 907.39 912.39
  Q 907.03 907.57 907.26 902.74
  C 907.39 899.97 906.77 897.55 906.42 894.89
  Q 906.38 894.56 906.05 894.57
  L 592.87 903.36
  Q 592.32 903.37 592.28 903.93
  Q 591.73 911.71 591.51 919.50
  Q 590.14 967.64 587.86 1015.74
  Q 584.90 1078.21 580.02 1153.00
  Q 576.38 1208.71 569.09 1262.09
  C 566.17 1283.44 561.84 1304.46 556.50 1325.34
  Q 554.71 1332.33 552.18 1338.78
  A 1.28 1.27 -79.8 0 1 551.01 1339.60
  Q 550.75 1339.60 550.73 1338.87
  Q 550.60 1335.39 550.90 1331.93
  C 551.77 1322.16 551.23 1312.22 551.89 1302.37
  Q 552.25 1297.08 552.06 1278.31
  C 552.05 1277.34 552.79 1276.76 552.79 1275.89
  Q 552.84 1263.57 552.84 1251.25
  C 552.84 1249.30 553.40 1247.34 553.43 1245.58
  Q 553.94 1210.97 554.64 1194.50
  Q 555.34 1177.74 555.02 1165.25
  C 555.01 1164.52 555.77 1163.23 555.78 1162.21
  Q 555.90 1149.61 555.85 1137.00
  C 555.84 1136.46 556.39 1135.86 556.41 1135.13
  Q 556.98 1106.50 557.55 1077.87
  C 557.56 1077.42 557.69 1077.19 557.90 1076.81
  Q 558.09 1076.48 558.09 1076.10
  Q 558.12 1063.16 558.16 1050.22
  C 558.16 1049.45 558.85 1048.89 558.85 1048.18
  Q 558.89 1035.84 558.82 1023.50
  C 558.82 1022.27 559.46 1021.16 559.48 1020.05
  Q 559.84 994.71 560.53 969.37
  C 560.56 968.21 560.21 966.44 560.69 964.83
  Q 561.10 963.43 561.11 962.59
  Q 561.15 951.06 561.11 939.53
  C 561.10 937.72 561.87 936.48 561.87 934.82
  Q 561.88 922.09 561.87 909.37
  A 1.78 1.77 60.5 0 1 562.12 908.46
  Q 563.02 906.89 562.53 905.03
  A 0.89 0.87 -6.9 0 0 561.69 904.38
  C 549.78 904.29 537.06 905.06 526.13 905.20
  Q 505.78 905.47 490.24 906.78
  Q 488.47 906.93 486.28 908.38
  Q 485.86 908.66 485.36 908.69
  C 478.92 909.04 472.39 909.70 466.06 909.70
  Q 421.03 909.73 376.00 909.74
  Q 367.21 909.74 356.02 910.14
  C 344.16 910.56 332.38 910.35 320.52 911.22
  Z
  M 992.74 307.59
  Q 991.99 306.36 992.06 307.80
  Q 995.02 368.40 1006.02 428.54
  C 1011.93 460.87 1018.14 493.03 1025.66 525.18
  A 1.67 1.66 -6.6 0 0 1027.28 526.46
  L 1059.26 526.48
  Q 1060.81 526.48 1060.35 525.00
  Q 1026.85 416.66 994.69 311.94
  Q 993.98 309.63 992.74 307.59
  Z
  M 742.62 407.13
  C 736.21 372.64 730.06 342.13 716.69 310.79
  A 0.41 0.41 0.0 0 0 715.94 310.78
  C 701.28 342.26 695.50 377.10 695.67 411.75
  A 0.58 0.58 0.0 0 0 696.25 412.32
  L 743.02 412.33
  A 0.54 0.54 0.0 0 0 743.55 411.66
  Q 743.21 410.25 742.62 407.13
  Z
  M 1113.97 314.26
  L 1073.21 525.30
  A 0.87 0.86 -84.8 0 0 1074.06 526.33
  Q 1095.71 526.31 1117.61 526.33
  C 1119.24 526.33 1120.26 526.45 1120.87 524.68
  Q 1123.88 516.01 1124.77 506.88
  Q 1129.03 463.16 1127.86 419.25
  Q 1127.25 396.54 1125.62 377.76
  Q 1122.98 347.22 1115.97 315.49
  Q 1115.73 314.41 1115.27 313.90
  A 0.75 0.75 0.0 0 0 1113.97 314.26
  Z
  M 747.51 443.11
  Q 746.17 432.29 744.69 421.61
  A 0.71 0.69 -3.7 0 0 743.99 421.01
  L 696.03 421.01
  Q 695.58 421.01 695.59 421.45
  C 696.47 452.11 700.65 484.01 712.87 512.68
  Q 716.29 520.69 719.95 526.06
  A 0.89 0.86 -15.8 0 0 720.66 526.44
  L 748.70 526.50
  Q 749.25 526.50 749.31 525.95
  C 749.57 523.44 750.12 520.95 750.25 518.49
  Q 752.20 480.69 747.51 443.11
  Z
  M 905.28 862.54
  Q 904.99 857.63 904.97 852.69
  Q 904.95 848.60 904.45 842.84
  C 903.99 837.58 904.38 832.24 903.91 827.06
  C 903.32 820.62 903.73 814.34 903.08 807.86
  C 902.47 801.80 902.67 794.84 902.31 789.52
  C 901.83 782.48 902.22 775.58 901.55 768.50
  Q 901.19 764.72 901.13 760.92
  Q 901.01 754.27 900.70 749.61
  C 900.30 743.56 900.48 737.59 900.03 731.48
  Q 899.44 723.42 899.83 715.33
  C 899.92 713.44 899.08 711.63 899.06 709.66
  Q 898.99 701.20 898.96 692.76
  C 898.96 690.99 898.22 688.96 898.22 687.00
  Q 898.25 678.43 898.23 669.86
  Q 898.23 669.50 898.09 669.16
  C 896.79 665.96 897.51 659.21 897.46 655.57
  C 897.35 647.58 896.44 637.72 896.79 628.68
  C 896.88 626.35 896.01 623.96 896.01 622.00
  Q 896.00 609.22 895.99 596.44
  C 895.99 595.43 895.42 594.56 895.41 593.75
  Q 895.23 581.71 895.20 569.67
  Q 895.20 566.81 894.61 558.36
  Q 894.22 552.69 894.61 546.97
  A 0.85 0.85 0.0 0 0 893.76 546.06
  L 867.25 546.18
  A 0.98 0.97 -77.8 0 0 866.36 546.76
  Q 853.14 576.47 836.26 604.29
  C 829.03 616.21 818.89 626.80 810.55 638.26
  Q 797.10 656.75 790.34 678.50
  C 788.82 683.41 788.36 688.70 788.03 693.79
  A 0.74 0.74 0.0 0 1 786.66 694.13
  Q 772.01 670.58 756.28 648.43
  Q 750.63 640.49 735.38 622.12
  C 729.41 614.92 717.86 603.15 709.04 602.15
  C 703.22 601.49 698.22 609.32 697.78 614.01
  Q 697.02 622.08 697.90 625.78
  C 703.19 647.99 717.97 669.50 733.51 685.87
  C 741.91 694.71 753.53 704.02 763.82 712.66
  C 774.66 721.75 784.58 730.75 792.89 739.86
  C 800.75 748.48 805.03 756.64 810.38 767.87
  Q 814.22 775.92 815.77 783.49
  Q 819.84 803.32 817.47 824.35
  Q 814.99 846.28 801.56 863.78
  Q 800.39 865.30 802.30 865.25
  L 904.97 862.87
  Q 905.30 862.86 905.28 862.54
  Z
  M 662.45 749.68
  C 663.21 750.82 664.23 752.11 664.85 753.32
  Q 686.03 794.58 709.85 832.40
  Q 720.22 848.87 733.18 865.07
  Q 733.65 865.65 734.20 865.98
  Q 735.09 866.50 735.50 866.51
  Q 740.88 866.70 756.82 866.46
  C 759.25 866.43 760.29 865.82 760.58 863.37
  Q 762.14 850.35 758.91 838.76
  Q 750.76 809.54 730.78 787.43
  C 723.24 779.09 713.97 772.05 704.25 764.28
  C 685.13 749.00 666.39 727.68 655.37 704.97
  C 647.98 689.73 645.05 674.01 646.19 657.26
  C 648.34 625.62 669.98 600.06 700.48 591.94
  Q 724.14 585.65 750.21 586.59
  Q 769.49 587.29 769.82 587.28
  C 788.46 586.95 811.38 584.20 828.14 575.44
  C 840.35 569.06 851.62 558.65 859.82 547.48
  A 0.67 0.67 0.0 0 0 859.27 546.41
  Q 729.26 547.75 599.25 546.40
  Q 598.77 546.40 598.77 546.88
  Q 598.08 608.56 597.18 670.25
  Q 595.72 770.79 593.05 871.77
  Q 593.04 872.27 593.54 872.25
  L 658.76 869.47
  Q 661.19 869.37 659.14 868.06
  L 643.86 858.34
  Q 643.40 858.05 643.55 857.53
  Q 649.08 838.38 650.53 832.76
  Q 658.48 801.96 661.75 764.71
  C 662.16 760.09 661.86 754.87 661.80 749.88
  A 0.35 0.35 0.0 0 1 662.45 749.68
  Z
  M 355.00 1009.51
  C 340.24 1042.48 334.40 1076.91 334.68 1112.55
  Q 334.68 1112.89 335.02 1112.89
  L 383.02 1112.87
  Q 383.65 1112.87 383.54 1112.25
  C 377.80 1079.91 370.41 1042.45 356.28 1009.52
  A 0.70 0.70 0.0 0 0 355.00 1009.51
  Z"
/>
<path fill="#ffffff" d="
  M 734.87 971.80
  Q 728.79 1000.20 727.53 1029.26
  C 727.21 1036.71 726.53 1044.35 726.52 1051.60
  Q 726.47 1074.38 726.51 1097.16
  C 726.53 1108.33 727.34 1119.39 728.05 1130.49
  Q 731.02 1177.23 740.15 1222.60
  Q 740.37 1223.65 739.29 1223.65
  L 661.23 1223.66
  A 0.41 0.40 -86.8 0 1 660.83 1223.21
  Q 667.99 1153.08 667.24 1082.51
  Q 667.08 1067.70 666.84 1062.51
  Q 665.42 1030.65 655.74 1002.02
  C 651.04 988.10 641.71 974.09 633.61 960.94
  C 622.91 943.61 616.37 928.84 615.01 908.53
  Q 615.00 908.36 615.00 908.22
  A 0.68 0.68 0.0 0 1 616.33 908.00
  C 625.97 935.47 651.54 953.07 679.26 960.11
  C 702.77 966.08 726.21 967.81 750.00 967.42
  Q 753.50 967.36 763.52 968.78
  C 778.09 970.84 788.80 973.15 801.48 981.47
  C 812.04 988.41 818.89 995.95 823.84 1007.87
  C 829.88 1022.40 831.73 1037.58 831.48 1053.26
  Q 830.96 1086.62 805.35 1106.98
  A 1.72 1.71 -27.9 0 0 804.78 1108.82
  Q 821.83 1164.21 845.22 1217.01
  Q 853.38 1235.41 864.96 1251.79
  C 868.49 1256.78 872.21 1260.56 876.97 1263.84
  A 0.44 0.44 0.0 0 1 876.68 1264.64
  Q 870.82 1264.04 864.98 1262.39
  Q 826.13 1251.37 795.10 1226.25
  C 770.99 1206.74 754.54 1179.63 746.46 1149.69
  Q 742.91 1136.54 740.97 1123.09
  A 0.70 0.69 -25.5 0 1 741.18 1122.51
  C 762.03 1103.90 767.23 1077.69 766.06 1051.24
  Q 764.59 1017.93 749.84 989.68
  Q 744.78 979.99 735.45 971.61
  Q 735.00 971.20 734.87 971.80
  Z"
/>
<path fill="#ffffff" d="
  M 1125.64 989.87
  Q 1119.02 1031.60 1116.42 1074.00
  C 1115.41 1090.36 1115.30 1106.31 1116.22 1122.98
  Q 1119.22 1177.66 1129.07 1231.54
  Q 1129.15 1231.98 1128.70 1231.98
  L 1048.55 1231.98
  Q 1048.02 1231.98 1048.12 1231.46
  Q 1061.00 1166.51 1061.70 1100.51
  Q 1061.80 1090.73 1061.24 1080.52
  Q 1058.72 1034.87 1051.58 989.86
  A 0.39 0.39 0.0 0 0 1051.06 989.55
  C 1028.53 997.19 1007.92 1012.73 997.85 1034.41
  Q 997.01 1036.21 996.45 1034.30
  L 961.68 915.40
  A 0.55 0.55 0.0 0 1 962.69 914.99
  Q 977.55 942.95 1005.23 955.56
  C 1024.79 964.47 1046.71 968.88 1068.50 969.88
  C 1101.31 971.39 1131.27 970.49 1161.12 959.99
  C 1184.97 951.60 1202.86 938.05 1214.40 914.96
  A 0.44 0.44 0.0 0 1 1215.24 915.14
  Q 1215.30 916.80 1214.80 918.52
  Q 1197.74 977.04 1180.96 1035.13
  A 0.57 0.57 0.0 0 1 1179.89 1035.22
  C 1169.30 1012.85 1149.39 997.22 1126.25 989.50
  A 0.47 0.46 13.6 0 0 1125.64 989.87
  Z"
/>
</svg>
