<?xml version="1.0" encoding="UTF-8" standalone="no"?>
<!DOCTYPE svg PUBLIC "-//W3C//DTD SVG 1.1//EN" "http://www.w3.org/Graphics/SVG/1.1/DTD/svg11.dtd">
<svg xmlns="http://www.w3.org/2000/svg" version="1.1" viewBox="0.00 0.00 1448.00 1448.00">
<path fill="#ffffff" d="
  M 1448.00 1365.13
  L 1448.00 1389.50
  Q 1446.78 1398.99 1441.13 1407.91
  C 1425.46 1432.66 1400.84 1443.46 1371.92 1437.50
  C 1364.83 1436.04 1358.04 1432.81 1352.88 1428.13
  C 1338.03 1414.69 1322.61 1401.80 1308.11 1388.00
  Q 1292.53 1373.17 1276.33 1359.02
  Q 1268.52 1352.21 1261.57 1345.54
  Q 1242.11 1326.84 1222.01 1308.85
  C 1207.17 1295.56 1192.83 1281.70 1178.23 1268.15
  C 1177.46 1267.42 1176.28 1266.82 1175.21 1265.78
  Q 1169.30 1260.08 1163.28 1254.48
  C 1102.84 1198.26 1042.74 1141.69 982.23 1085.56
  Q 979.04 1082.60 971.69 1075.51
  C 963.39 1067.49 953.19 1058.58 946.31 1052.05
  Q 921.60 1028.62 896.49 1005.62
  C 881.62 992.00 867.21 977.91 852.25 964.37
  C 839.77 953.08 828.39 942.04 816.36 930.56
  Q 815.75 929.98 815.10 930.52
  C 810.31 934.52 804.01 937.63 799.55 940.72
  Q 767.52 962.93 734.02 978.53
  Q 687.57 1000.15 636.41 1014.66
  Q 625.77 1017.67 617.04 1019.58
  Q 579.75 1027.73 541.53 1027.93
  Q 534.21 1027.96 525.48 1028.61
  Q 509.12 1029.82 492.76 1028.74
  Q 480.88 1027.96 474.21 1027.89
  Q 464.60 1027.78 455.00 1027.51
  Q 454.24 1027.49 453.55 1027.09
  Q 453.13 1026.86 452.66 1026.84
  Q 428.63 1025.75 406.76 1020.79
  Q 344.93 1006.76 286.40 979.89
  Q 277.13 975.63 268.53 970.91
  Q 200.25 933.41 145.72 877.68
  C 141.92 873.79 136.66 869.02 132.42 864.38
  Q 132.08 864.01 132.05 863.51
  Q 132.02 862.98 131.65 862.61
  Q 124.76 855.72 118.50 848.27
  C 98.66 824.68 78.39 798.36 64.16 772.52
  Q 59.01 763.18 45.01 735.11
  Q 40.51 726.09 36.77 716.90
  Q 27.43 694.00 24.75 686.27
  Q 10.98 646.60 4.56 600.15
  C 2.70 586.72 1.46 571.32 0.00 556.87
  L 0.00 475.25
  Q 2.34 451.27 3.19 444.75
  Q 14.24 360.79 51.24 289.27
  C 58.77 274.72 69.95 252.91 82.99 234.52
  Q 97.00 214.76 110.06 198.31
  Q 121.12 184.38 135.04 170.54
  Q 145.66 159.99 156.08 149.24
  C 172.25 132.56 190.88 117.65 209.30 103.55
  Q 217.28 97.44 225.59 91.94
  C 265.17 65.74 305.76 44.88 351.54 31.08
  Q 380.74 22.28 407.25 16.64
  Q 442.85 9.08 481.12 9.74
  C 481.97 9.75 482.90 9.09 483.48 9.09
  Q 508.24 9.01 533.00 9.16
  Q 533.68 9.16 534.24 9.50
  A 1.78 1.74 -29.3 0 0 535.13 9.74
  Q 569.77 9.25 604.00 14.77
  Q 610.12 15.76 621.22 18.46
  C 657.95 27.41 691.31 37.71 725.05 53.74
  Q 774.21 77.08 817.68 109.80
  Q 825.94 116.01 852.63 139.93
  C 853.82 141.00 855.04 140.96 856.08 141.98
  Q 876.89 162.39 899.81 188.19
  Q 910.71 200.44 917.75 210.20
  C 933.28 231.72 947.18 251.01 961.08 276.40
  Q 965.68 284.80 970.02 294.29
  Q 982.96 322.56 989.08 339.39
  Q 1008.11 391.77 1015.70 441.01
  Q 1018.35 458.17 1018.19 480.32
  Q 1018.14 486.98 1018.75 494.67
  Q 1020.19 512.55 1018.71 530.45
  Q 1018.06 538.40 1018.08 545.08
  Q 1018.23 586.33 1010.10 626.73
  Q 1008.25 635.93 1005.51 646.18
  Q 994.66 686.84 978.79 723.01
  Q 971.30 740.07 960.33 761.30
  Q 955.82 770.02 950.39 778.65
  Q 931.51 808.66 911.45 837.38
  A 1.68 1.68 0.0 0 0 911.48 839.34
  C 916.42 845.91 921.23 851.72 927.35 857.75
  C 943.54 873.71 959.33 890.18 976.11 905.52
  C 984.81 913.47 992.91 922.11 1001.69 929.82
  Q 1009.59 936.76 1012.11 939.40
  Q 1020.72 948.43 1035.32 961.42
  C 1047.05 971.86 1063.28 988.05 1077.52 1001.10
  C 1099.51 1021.26 1118.67 1039.95 1142.94 1062.20
  Q 1149.21 1067.95 1157.46 1075.94
  Q 1173.33 1091.32 1189.85 1106.01
  Q 1197.14 1112.49 1204.41 1119.71
  Q 1220.36 1135.54 1237.17 1150.47
  Q 1244.70 1157.15 1251.76 1164.13
  Q 1268.75 1180.93 1286.64 1196.75
  Q 1294.10 1203.34 1301.22 1210.43
  Q 1319.24 1228.37 1338.34 1245.17
  C 1346.21 1252.09 1352.59 1259.65 1360.08 1266.59
  C 1372.44 1278.04 1384.72 1289.22 1396.56 1301.59
  Q 1412.79 1318.53 1429.62 1334.88
  C 1438.55 1343.55 1446.26 1352.54 1448.00 1365.13
  Z
  M 945.37 611.37
  C 959.16 549.69 958.52 481.75 943.76 419.24
  Q 934.95 381.93 920.47 345.55
  Q 916.73 336.14 912.41 327.26
  C 878.81 258.16 829.68 199.20 766.50 155.00
  C 745.42 140.24 725.19 127.61 702.89 117.30
  Q 685.41 109.22 677.60 105.92
  Q 647.94 93.42 616.77 85.37
  C 592.67 79.13 572.68 77.18 545.57 74.51
  C 542.15 74.18 538.27 74.37 535.25 74.15
  Q 500.75 71.64 478.12 73.12
  Q 447.67 75.12 426.23 79.50
  Q 357.61 93.54 292.67 128.91
  Q 268.78 141.92 242.24 161.93
  C 228.09 172.60 216.21 181.71 204.93 193.18
  C 195.29 202.99 184.81 212.48 176.73 221.59
  Q 138.51 264.68 112.00 315.81
  Q 107.99 323.55 103.50 333.92
  C 97.97 346.68 92.13 359.69 87.70 372.44
  C 78.20 399.80 70.87 427.17 67.47 456.00
  C 63.78 487.35 63.54 516.05 63.74 541.25
  C 64.07 584.03 74.11 627.54 88.90 668.01
  Q 102.35 704.79 123.72 742.57
  C 132.77 758.55 144.24 773.78 155.09 788.67
  Q 164.85 802.05 177.74 816.01
  C 189.24 828.45 199.96 839.83 212.28 850.58
  Q 232.23 867.99 253.59 883.67
  C 267.95 894.22 283.65 902.72 299.91 911.76
  Q 309.57 917.13 317.64 921.00
  Q 343.72 933.52 366.72 940.77
  Q 394.42 949.50 413.99 953.77
  C 453.10 962.32 493.27 963.27 535.01 962.55
  Q 581.66 961.74 630.76 947.32
  Q 657.33 939.51 664.59 936.64
  Q 718.23 915.45 765.54 882.74
  C 777.36 874.58 788.94 864.47 800.35 855.05
  C 810.55 846.64 818.73 838.93 827.13 829.88
  C 838.72 817.38 850.91 804.72 861.09 791.29
  Q 888.12 755.66 908.69 715.93
  Q 913.21 707.20 917.18 697.83
  Q 935.98 653.43 945.37 611.37
  Z"
/>
</svg>
